# xmcd
#
# Track frame offsets:
#	150
#	13726
#	32637
#	43944
#	59549
#	69249
#	83852
#	99710
#	110920
#	121698
#	135920
#	145487
#	160329
#	178576
#	191328
#
# Disc length: 2749 seconds
#
# Revision: 0
# Processed by: cddbd v1.4PL0 Copyright (c) Steve Scherf et al.
# Submitted via: dBpowerAMP V4.0
#
DISCID=d00abb0f
DTITLE=On The Road (especially for truckers) - Vol 3
DYEAR=1900
DGENRE=Country
TTITLE0=Roland Konings and That's It - Six Days On The Road
TTITLE1=The Major Dundee Band With Allez Mama - Hey Suzy
TTITLE2=De Tamara's - On The Road Again
TTITLE3=Roland Konings and That's It - I Just Want To Dance With You
TTITLE4=Bobby Prins - There Goes My Heart Again
TTITLE5=The Major Dundee Band - Roll-on Wheels
TTITLE6=Burt Blanca - With You (you're my desire)
TTITLE7=Roland Konings and That's It - Come On Home
TTITLE8=Rocky Taylor - Rocking In The Streets
TTITLE9=Bobby Prins - Save The Last Dance For Me
TTITLE10=De Tamara's - I'm Ready
TTITLE11=Roland Konings and Friends - Good Looking Lady
TTITLE12=Andy - Gone Girl
TTITLE13=The Black Devils - Tell Me
TTITLE14=Rocky Taylor - You'll Never Be Sorry
EXTD=
EXTT0=
EXTT1=
EXTT2=
EXTT3=
EXTT4=
EXTT5=
EXTT6=
EXTT7=
EXTT8=
EXTT9=
EXTT10=
EXTT11=
EXTT12=
EXTT13=
EXTT14=
PLAYORDER=
